# xmcd
#
# Track frame offsets: 
#        150
#        12283
#        22919
#        33456
#        47632
#        60125
#        71726
#        82967
#        96970
#        109269
#        128338
#        144316
#        194176
#        233035
#        244685
#        265202
#        279720
#        292101
#        305459
#        315195
#
# Disc length: 4518 seconds
#
# Revision: 1
# Processed by: cddbd v1.5.2PL0 Copyright (c) Steve Scherf et al.
# Submitted via: ExactAudioCopy v1.5
#
DISCID=1111a414
DTITLE=Creedence Clearwater Revival - The Ultimate Collection (Austral
DTITLE=ian Exclusive)
DYEAR=2012
DGENRE=Classic Rock
TTITLE0=Have You Ever Seen The Rain
TTITLE1=Bad Moon Rising
TTITLE2=Fortunate Son
TTITLE3=Proud Mary
TTITLE4=Down On The Corner
TTITLE5=Lookin' Out My Back Door
TTITLE6=Who'll Stop The Rain
TTITLE7=Run Through The Jungle
TTITLE8=Up Around The Bend
TTITLE9=The Midnight Special
TTITLE10=Long As I Can See The Light
TTITLE11=I Heard It Through The Grapevine
TTITLE12=Suzie Q
TTITLE13=Green River
TTITLE14=I Put A Spell On You
TTITLE15=Lodi
TTITLE16=Hey Tonight
TTITLE17=Cotton Fields
TTITLE18=Travelin' Band
TTITLE19=Born On The Bayou
EXTD=
EXTT0=
EXTT1=
EXTT2=
EXTT3=
EXTT4=
EXTT5=
EXTT6=
EXTT7=
EXTT8=
EXTT9=
EXTT10=
EXTT11=
EXTT12=
EXTT13=
EXTT14=
EXTT15=
EXTT16=
EXTT17=
EXTT18=
EXTT19=
PLAYORDER=
